<svg width="60" height="60" viewBox="0 0 60 60" xmlns="http://www.w3.org/2000/svg">
    <defs>
        <linearGradient id="appleGradient" x1="0%" y1="0%" x2="100%" y2="100%">
            <stop offset="0%" style="stop-color:#c8e6c9;stop-opacity:1" />
            <stop offset="50%" style="stop-color:#8bc34a;stop-opacity:1" />
            <stop offset="100%" style="stop-color:#689f38;stop-opacity:1" />
        </linearGradient>
        <linearGradient id="stemGradient" x1="0%" y1="0%" x2="100%" y2="100%">
            <stop offset="0%" style="stop-color:#8d6e63;stop-opacity:1" />
            <stop offset="100%" style="stop-color:#5d4037;stop-opacity:1" />
        </linearGradient>
        <radialGradient id="appleHighlight" cx="25%" cy="30%" r="40%">
            <stop offset="0%" style="stop-color:#e8f5e8;stop-opacity:0.9" />
            <stop offset="100%" style="stop-color:#e8f5e8;stop-opacity:0" />
        </radialGradient>
    </defs>
    
    <!-- Apple body -->
    <path d="M30 48 C20 48 15 40 15 32 C15 24 18 20 22 18 C24 16 26 16 28 18 
             C29 16 31 16 32 18 C34 16 36 16 38 18 C42 20 45 24 45 32 C45 40 40 48 30 48 Z" 
          fill="url(#appleGradient)"/>
    
    <!-- Apple indent at top -->
    <path d="M26 18 C28 16 30 17 30 17 C30 17 32 16 34 18 C32 16 30 16 30 16 C30 16 28 16 26 18 Z" 
          fill="#689f38"/>
    
    <!-- Stem -->
    <rect x="29" y="12" width="2" height="6" rx="1" fill="url(#stemGradient)"/>
    
    <!-- Leaf -->
    <ellipse cx="33" cy="15" rx="3" ry="2" fill="#4caf50" transform="rotate(30 33 15)"/>
    
    <!-- Highlight -->
    <ellipse cx="26" cy="26" rx="6" ry="10" fill="url(#appleHighlight)"/>
    
    <!-- Apple surface texture -->
    <g stroke="#689f38" stroke-width="0.3" fill="none" opacity="0.4">
        <path d="M20 25 Q25 30 20 35"/>
        <path d="M22 22 Q27 27 22 32"/>
        <path d="M24 20 Q29 25 24 30"/>
        <path d="M40 25 Q35 30 40 35"/>
        <path d="M38 22 Q33 27 38 32"/>
        <path d="M36 20 Q31 25 36 30"/>
    </g>
    
    <!-- Subtle surface spots -->
    <g fill="#689f38" opacity="0.2">
        <ellipse cx="35" cy="28" rx="1" ry="2"/>
        <ellipse cx="25" cy="35" rx="1.5" ry="1"/>
        <ellipse cx="37" cy="38" rx="1" ry="1.5"/>
    </g>
</svg>
