<svg width="60" height="60" viewBox="0 0 60 60" xmlns="http://www.w3.org/2000/svg">
    <defs>
        <linearGradient id="lycheeGradient" x1="0%" y1="0%" x2="100%" y2="100%">
            <stop offset="0%" style="stop-color:#ffcdd2;stop-opacity:1" />
            <stop offset="50%" style="stop-color:#e69b83;stop-opacity:1" />
            <stop offset="100%" style="stop-color:#d7685c;stop-opacity:1" />
        </linearGradient>
        <radialGradient id="lycheeHighlight" cx="35%" cy="25%" r="30%">
            <stop offset="0%" style="stop-color:#fff;stop-opacity:0.6" />
            <stop offset="100%" style="stop-color:#fff;stop-opacity:0" />
        </radialGradient>
    </defs>
    
    <!-- Lychee body -->
    <ellipse cx="30" cy="32" rx="14" ry="16" fill="url(#lycheeGradient)"/>
    
    <!-- Highlight -->
    <ellipse cx="32" cy="28" rx="6" ry="8" fill="url(#lycheeHighlight)"/>
    
    <!-- Lychee texture (bumpy surface) -->
    <g fill="#d7685c" opacity="0.6">
        <circle cx="22" cy="24" r="1.5"/>
        <circle cx="26" cy="22" r="1"/>
        <circle cx="30" cy="20" r="1.2"/>
        <circle cx="34" cy="22" r="1"/>
        <circle cx="38" cy="25" r="1.3"/>
        
        <circle cx="20" cy="28" r="1"/>
        <circle cx="24" cy="27" r="1.4"/>
        <circle cx="28" cy="26" r="1"/>
        <circle cx="32" cy="25" r="1.2"/>
        <circle cx="36" cy="27" r="1"/>
        <circle cx="40" cy="29" r="1.3"/>
        
        <circle cx="22" cy="32" r="1.2"/>
        <circle cx="26" cy="31" r="1"/>
        <circle cx="30" cy="30" r="1.4"/>
        <circle cx="34" cy="31" r="1"/>
        <circle cx="38" cy="33" r="1.2"/>
        
        <circle cx="20" cy="36" r="1"/>
        <circle cx="24" cy="36" r="1.3"/>
        <circle cx="28" cy="35" r="1"/>
        <circle cx="32" cy="36" r="1.2"/>
        <circle cx="36" cy="37" r="1"/>
        <circle cx="40" cy="38" r="1.1"/>
        
        <circle cx="22" cy="40" r="1"/>
        <circle cx="26" cy="41" r="1.2"/>
        <circle cx="30" cy="40" r="1"/>
        <circle cx="34" cy="42" r="1.1"/>
        <circle cx="38" cy="43" r="1"/>
        
        <circle cx="24" cy="45" r="1"/>
        <circle cx="28" cy="46" r="1.1"/>
        <circle cx="32" cy="45" r="1"/>
        <circle cx="36" cy="47" r="1"/>
    </g>
</svg>
