<svg width="60" height="60" viewBox="0 0 60 60" xmlns="http://www.w3.org/2000/svg">
    <defs>
        <linearGradient id="orangeGradient" x1="0%" y1="0%" x2="100%" y2="100%">
            <stop offset="0%" style="stop-color:#ffcc80;stop-opacity:1" />
            <stop offset="50%" style="stop-color:#ff6600;stop-opacity:1" />
            <stop offset="100%" style="stop-color:#e65100;stop-opacity:1" />
        </linearGradient>
        <radialGradient id="orangeHighlight" cx="25%" cy="25%" r="35%">
            <stop offset="0%" style="stop-color:#fff3e0;stop-opacity:0.8" />
            <stop offset="100%" style="stop-color:#fff3e0;stop-opacity:0" />
        </radialGradient>
    </defs>
    
    <!-- Orange body -->
    <circle cx="30" cy="32" r="16" fill="url(#orangeGradient)"/>
    
    <!-- Orange stem area -->
    <ellipse cx="30" cy="16" rx="2" ry="1" fill="#8bc34a"/>
    
    <!-- Highlight -->
    <ellipse cx="26" cy="26" rx="6" ry="8" fill="url(#orangeHighlight)"/>
    
    <!-- Orange peel texture -->
    <g fill="#e65100" opacity="0.3">
        <circle cx="22" cy="22" r="1"/>
        <circle cx="26" cy="20" r="0.8"/>
        <circle cx="30" cy="19" r="1"/>
        <circle cx="34" cy="21" r="0.9"/>
        <circle cx="38" cy="24" r="1"/>
        
        <circle cx="20" cy="27" r="0.8"/>
        <circle cx="24" cy="25" r="1"/>
        <circle cx="28" cy="24" r="0.7"/>
        <circle cx="32" cy="25" r="1"/>
        <circle cx="36" cy="27" r="0.8"/>
        <circle cx="40" cy="30" r="1"/>
        
        <circle cx="19" cy="32" r="1"/>
        <circle cx="23" cy="31" r="0.8"/>
        <circle cx="27" cy="30" r="1"/>
        <circle cx="31" cy="31" r="0.7"/>
        <circle cx="35" cy="32" r="1"/>
        <circle cx="39" cy="34" r="0.8"/>
        <circle cx="41" cy="37" r="1"/>
        
        <circle cx="20" cy="37" r="0.8"/>
        <circle cx="24" cy="36" r="1"/>
        <circle cx="28" cy="35" r="0.8"/>
        <circle cx="32" cy="36" r="1"/>
        <circle cx="36" cy="38" r="0.8"/>
        <circle cx="40" cy="40" r="1"/>
        
        <circle cx="22" cy="42" r="1"/>
        <circle cx="26" cy="41" r="0.8"/>
        <circle cx="30" cy="43" r="1"/>
        <circle cx="34" cy="42" r="0.9"/>
        <circle cx="38" cy="44" r="0.8"/>
        
        <circle cx="24" cy="46" r="0.8"/>
        <circle cx="28" cy="47" r="1"/>
        <circle cx="32" cy="46" r="0.8"/>
        <circle cx="36" cy="47" r="1"/>
    </g>
    
    <!-- Segment lines -->
    <g stroke="#e65100" stroke-width="0.5" fill="none" opacity="0.4">
        <path d="M30 16 L30 48"/>
        <path d="M16 32 L44 32"/>
        <path d="M22 20 L38 44"/>
        <path d="M38 20 L22 44"/>
        <path d="M20 24 L40 40"/>
        <path d="M40 24 L20 40"/>
    </g>
</svg>
