<svg width="60" height="60" viewBox="0 0 60 60" xmlns="http://www.w3.org/2000/svg">
    <defs>
        <linearGradient id="passionfruitGradient" x1="0%" y1="0%" x2="100%" y2="100%">
            <stop offset="0%" style="stop-color:#9c27b0;stop-opacity:1" />
            <stop offset="50%" style="stop-color:#74226e;stop-opacity:1" />
            <stop offset="100%" style="stop-color:#4a148c;stop-opacity:1" />
        </linearGradient>
        <radialGradient id="passionfruitHighlight" cx="30%" cy="30%" r="40%">
            <stop offset="0%" style="stop-color:#e1bee7;stop-opacity:0.8" />
            <stop offset="100%" style="stop-color:#e1bee7;stop-opacity:0" />
        </radialGradient>
    </defs>
    
    <!-- Passionfruit body -->
    <circle cx="30" cy="30" r="16" fill="url(#passionfruitGradient)"/>
    
    <!-- Highlight -->
    <ellipse cx="28" cy="26" rx="6" ry="8" fill="url(#passionfruitHighlight)"/>
    
    <!-- Wrinkled texture -->
    <g stroke="#4a148c" stroke-width="0.8" fill="none" opacity="0.7">
        <path d="M18 22 Q22 24 18 26"/>
        <path d="M42 22 Q38 24 42 26"/>
        <path d="M20 30 Q24 32 20 34"/>
        <path d="M40 30 Q36 32 40 34"/>
        <path d="M18 38 Q22 36 18 34"/>
        <path d="M42 38 Q38 36 42 34"/>
        
        <path d="M26 16 Q28 20 30 16"/>
        <path d="M34 16 Q32 20 30 16"/>
        <path d="M26 44 Q28 40 30 44"/>
        <path d="M34 44 Q32 40 30 44"/>
    </g>
    
    <!-- Surface spots -->
    <g fill="#4a148c" opacity="0.4">
        <ellipse cx="24" cy="24" rx="1" ry="2"/>
        <ellipse cx="36" cy="26" rx="1.5" ry="1"/>
        <ellipse cx="26" cy="36" rx="1" ry="1.5"/>
        <ellipse cx="34" cy="34" rx="2" ry="1"/>
    </g>
</svg>
