<svg width="60" height="60" viewBox="0 0 60 60" xmlns="http://www.w3.org/2000/svg">
    <defs>
        <linearGradient id="pineappleGradient" x1="0%" y1="0%" x2="100%" y2="100%">
            <stop offset="0%" style="stop-color:#ffcc02;stop-opacity:1" />
            <stop offset="50%" style="stop-color:#ffb74d;stop-opacity:1" />
            <stop offset="100%" style="stop-color:#ff9800;stop-opacity:1" />
        </linearGradient>
        <linearGradient id="leafGradient" x1="0%" y1="0%" x2="100%" y2="100%">
            <stop offset="0%" style="stop-color:#4caf50;stop-opacity:1" />
            <stop offset="100%" style="stop-color:#2e7d32;stop-opacity:1" />
        </linearGradient>
    </defs>
    
    <!-- Pineapple body -->
    <ellipse cx="30" cy="35" rx="12" ry="18" fill="url(#pineappleGradient)"/>
    
    <!-- Pineapple crown/leaves -->
    <path d="M24 17 C24 14 26 12 28 12 C29 11 30 11 30 11 C30 11 31 11 32 12 C34 12 36 14 36 17
             C35 15 33 14 31 14 C30 13 30 13 30 13 C30 13 30 13 29 14 C27 14 25 15 24 17 Z" 
          fill="url(#leafGradient)"/>
    <path d="M26 17 L28 10" stroke="url(#leafGradient)" stroke-width="2" stroke-linecap="round"/>
    <path d="M30 17 L30 8" stroke="url(#leafGradient)" stroke-width="2" stroke-linecap="round"/>
    <path d="M34 17 L32 10" stroke="url(#leafGradient)" stroke-width="2" stroke-linecap="round"/>
    
    <!-- Diamond pattern -->
    <g stroke="#ff8f00" stroke-width="1" fill="none" opacity="0.7">
        <path d="M24 23 L30 29 L36 23"/>
        <path d="M24 29 L30 35 L36 29"/>
        <path d="M24 35 L30 41 L36 35"/>
        <path d="M24 41 L30 47 L36 41"/>
        
        <path d="M18 26 L24 32 L30 26"/>
        <path d="M30 26 L36 32 L42 26"/>
        <path d="M18 32 L24 38 L30 32"/>
        <path d="M30 32 L36 38 L42 32"/>
        <path d="M18 38 L24 44 L30 38"/>
        <path d="M30 38 L36 44 L42 38"/>
    </g>
</svg>
