<svg width="60" height="60" viewBox="0 0 60 60" xmlns="http://www.w3.org/2000/svg">
    <defs>
        <linearGradient id="pomegranateGradient" x1="0%" y1="0%" x2="100%" y2="100%">
            <stop offset="0%" style="stop-color:#e57373;stop-opacity:1" />
            <stop offset="50%" style="stop-color:#c62828;stop-opacity:1" />
            <stop offset="100%" style="stop-color:#8e1e1e;stop-opacity:1" />
        </linearGradient>
        <linearGradient id="crownGradient" x1="0%" y1="0%" x2="100%" y2="100%">
            <stop offset="0%" style="stop-color:#ff8a65;stop-opacity:1" />
            <stop offset="100%" style="stop-color:#d84315;stop-opacity:1" />
        </linearGradient>
        <radialGradient id="pomegranateHighlight" cx="25%" cy="25%" r="30%">
            <stop offset="0%" style="stop-color:#ffcdd2;stop-opacity:0.8" />
            <stop offset="100%" style="stop-color:#ffcdd2;stop-opacity:0" />
        </radialGradient>
    </defs>
    
    <!-- Pomegranate body -->
    <path d="M30 15 C40 15 45 22 45 32 C45 42 40 48 30 48 C20 48 15 42 15 32 C15 22 20 15 30 15 Z" 
          fill="url(#pomegranateGradient)"/>
    
    <!-- Crown -->
    <path d="M22 15 C22 12 24 10 26 10 L34 10 C36 10 38 12 38 15 
             C36 13 34 12 32 12 L28 12 C26 12 24 13 22 15 Z" 
          fill="url(#crownGradient)"/>
    
    <!-- Crown spikes -->
    <polygon points="24,12 26,8 28,12" fill="url(#crownGradient)"/>
    <polygon points="28,12 30,6 32,12" fill="url(#crownGradient)"/>
    <polygon points="32,12 34,8 36,12" fill="url(#crownGradient)"/>
    
    <!-- Highlight -->
    <ellipse cx="26" cy="22" rx="4" ry="6" fill="url(#pomegranateHighlight)"/>
    
    <!-- Seeds pattern -->
    <g fill="#8e1e1e" opacity="0.6">
        <circle cx="25" cy="25" r="1"/>
        <circle cx="30" cy="23" r="1"/>
        <circle cx="35" cy="26" r="1"/>
        <circle cx="23" cy="30" r="1"/>
        <circle cx="28" cy="28" r="1"/>
        <circle cx="33" cy="31" r="1"/>
        <circle cx="37" cy="33" r="1"/>
        <circle cx="26" cy="33" r="1"/>
        <circle cx="31" cy="35" r="1"/>
        <circle cx="24" cy="37" r="1"/>
        <circle cx="29" cy="39" r="1"/>
        <circle cx="34" cy="37" r="1"/>
        <circle cx="27" cy="42" r="1"/>
        <circle cx="32" cy="43" r="1"/>
    </g>
    
    <!-- Surface lines -->
    <g stroke="#8e1e1e" stroke-width="0.5" fill="none" opacity="0.5">
        <path d="M18 25 Q25 30 18 35"/>
        <path d="M42 25 Q35 30 42 35"/>
        <path d="M25 18 Q30 25 35 18"/>
        <path d="M25 46 Q30 39 35 46"/>
    </g>
</svg>
