<svg width="60" height="60" viewBox="0 0 60 60" xmlns="http://www.w3.org/2000/svg">
    <defs>
        <linearGradient id="strawberryGradient" x1="0%" y1="0%" x2="100%" y2="100%">
            <stop offset="0%" style="stop-color:#ff4757;stop-opacity:1" />
            <stop offset="100%" style="stop-color:#d21000;stop-opacity:1" />
        </linearGradient>
        <linearGradient id="leafGradient" x1="0%" y1="0%" x2="100%" y2="100%">
            <stop offset="0%" style="stop-color:#2ed573;stop-opacity:1" />
            <stop offset="100%" style="stop-color:#1e824c;stop-opacity:1" />
        </linearGradient>
    </defs>
    
    <!-- Strawberry body -->
    <path d="M30 45 C25 45 20 40 20 32 C20 25 25 18 30 18 C35 18 40 25 40 32 C40 40 35 45 30 45 Z" 
          fill="url(#strawberryGradient)" stroke="none"/>
    
    <!-- Strawberry leaves -->
    <path d="M22 18 C22 15 24 12 27 12 C28 12 29 13 30 13 C31 13 32 12 33 12 C36 12 38 15 38 18 
             C36 16 34 15 32 15 C31 15 30 16 30 16 C30 16 29 15 28 15 C26 15 24 16 22 18 Z" 
          fill="url(#leafGradient)" stroke="none"/>
    
    <!-- Seeds -->
    <ellipse cx="26" cy="25" rx="1" ry="1.5" fill="#2c2c2c"/>
    <ellipse cx="34" cy="27" rx="1" ry="1.5" fill="#2c2c2c"/>
    <ellipse cx="28" cy="32" rx="1" ry="1.5" fill="#2c2c2c"/>
    <ellipse cx="32" cy="35" rx="1" ry="1.5" fill="#2c2c2c"/>
    <ellipse cx="26" cy="38" rx="1" ry="1.5" fill="#2c2c2c"/>
    <ellipse cx="34" cy="40" rx="1" ry="1.5" fill="#2c2c2c"/>
    <ellipse cx="30" cy="42" rx="1" ry="1.5" fill="#2c2c2c"/>
</svg>
